<?xml version="1.0" standalone="no"?>
<!DOCTYPE svg PUBLIC "-//W3C//DTD SVG 20010904//EN"
 "http://www.w3.org/TR/2001/REC-SVG-20010904/DTD/svg10.dtd">
<svg version="1.0" xmlns="http://www.w3.org/2000/svg"
 width="500.000000pt" height="151.000000pt" viewBox="0 0 500.000000 151.000000"
 preserveAspectRatio="xMidYMid meet">

<g transform="translate(0.000000,151.000000) scale(0.100000,-0.100000)"
fill="#000000" stroke="none">
<path d="M671 1469 c-359 -60 -621 -389 -598 -753 20 -318 237 -579 549 -658
67 -17 102 -19 197 -16 200 9 342 70 481 208 149 149 216 337 199 560 -32 411
-427 725 -828 659z m327 -64 c182 -57 323 -182 409 -360 72 -153 83 -352 26
-510 -70 -198 -226 -352 -425 -422 -58 -21 -97 -27 -193 -31 -139 -5 -240 15
-347 68 -228 114 -381 373 -365 620 13 188 81 336 216 470 112 110 227 168
386 194 65 10 216 -5 293 -29z"/>
<path d="M637 1345 c-177 -45 -329 -171 -408 -338 -160 -343 35 -757 402 -853
83 -22 225 -22 308 0 208 54 382 227 436 436 21 78 15 233 -11 320 -56 190
-212 354 -400 422 -77 27 -243 34 -327 13z m436 -247 c18 -12 34 -23 35 -24 2
-1 -17 -32 -43 -69 -26 -36 -46 -68 -43 -70 2 -2 25 14 51 36 26 22 47 38 47
35 0 -3 -13 -27 -29 -53 -16 -26 -28 -50 -26 -53 2 -3 20 -14 40 -25 35 -18
40 -18 96 -4 32 9 59 14 59 13 0 -2 -20 -15 -45 -29 -24 -15 -56 -40 -69 -56
-14 -16 -31 -27 -39 -24 -7 3 -24 -3 -37 -13 l-24 -20 72 -7 c76 -7 109 -25
47 -25 -32 0 -35 -2 -29 -24 4 -15 1 -27 -8 -33 -23 -13 -59 -98 -51 -119 3
-10 18 -35 32 -53 27 -37 21 -35 -45 11 -35 25 -46 28 -82 22 -40 -6 -42 -8
-42 -42 l0 -35 -30 41 c-27 37 -35 42 -70 42 -44 0 -38 13 -58 -130 l-9 -65
-2 51 c-2 95 -12 144 -30 144 -9 0 -48 -46 -89 -105 -41 -58 -76 -105 -80
-105 -3 0 -23 12 -44 26 l-38 27 23 31 c75 102 99 138 93 143 -4 4 -27 -13
-53 -38 l-47 -44 34 43 c27 36 30 46 19 53 -8 5 -9 9 -4 9 6 0 6 3 0 8 -16 10
-57 84 -51 89 3 3 27 15 53 28 l48 22 -63 7 c-103 12 -119 25 -32 26 79 0 93
5 103 32 5 14 -3 23 -34 39 -23 11 -39 22 -36 25 2 2 35 -2 73 -10 38 -8 71
-13 73 -10 2 2 -24 37 -57 79 -34 41 -62 77 -62 80 0 3 33 -19 73 -48 106 -79
99 -79 91 0 -7 76 -5 76 49 -6 37 -55 39 -55 51 1 5 24 1 30 -39 53 -25 15
-45 31 -45 36 0 5 8 22 18 38 l18 29 69 -44 c39 -24 73 -44 77 -44 4 0 29 29
55 65 26 35 50 65 51 65 2 0 18 -10 35 -22z m-578 -423 c0 -30 -39 -27 -43 3
-3 20 0 23 20 20 15 -2 23 -10 23 -23z"/>
<path d="M995 1044 c-21 -30 -44 -59 -50 -64 -8 -6 -36 6 -82 35 -72 44 -76
44 -96 9 -4 -7 22 -30 68 -59 41 -25 75 -49 75 -52 0 -4 -18 -29 -39 -58 -30
-39 -38 -58 -34 -78 5 -26 -3 -33 -31 -28 -11 2 -36 -19 -36 -30 0 -5 9 -4 20
3 15 10 22 10 32 0 6 -6 15 -12 19 -12 3 0 26 28 49 63 24 34 51 72 61 84 l16
22 72 -45 c69 -45 72 -46 91 -29 11 10 20 21 20 25 0 3 -34 26 -75 49 -41 24
-75 46 -75 50 0 4 20 36 45 72 l45 64 -21 18 c-12 9 -24 17 -28 17 -3 0 -24
-25 -46 -56z"/>
<path d="M862 916 c6 -14 15 -23 19 -20 15 9 10 23 -11 34 -18 10 -19 9 -8
-14z"/>
<path d="M776 815 c-16 -9 -35 -23 -42 -33 -16 -20 -19 -102 -4 -102 6 0 10 5
10 12 0 6 10 25 23 42 13 17 26 39 30 49 3 9 11 17 16 17 5 0 11 7 15 15 7 19
-11 19 -48 0z"/>
<path d="M877 731 c-25 -38 -25 -39 -7 -56 36 -33 69 10 55 73 -8 31 -19 28
-48 -17z"/>
<path d="M1036 691 c-12 -19 7 -41 34 -41 24 0 27 3 22 25 -3 18 -11 25 -28
25 -12 0 -25 -4 -28 -9z"/>
<path d="M796 634 c-9 -23 8 -38 23 -21 9 11 8 17 -3 26 -11 9 -15 8 -20 -5z"/>
<path d="M560 595 c0 -8 5 -15 10 -15 6 0 10 7 10 15 0 8 -4 15 -10 15 -5 0
-10 -7 -10 -15z"/>
<path d="M1023 603 c-15 -5 -17 -29 -4 -37 4 -3 13 6 19 19 11 25 9 28 -15 18z"/>
<path d="M678 588 c-9 -7 -51 -60 -93 -117 l-77 -104 23 -18 c13 -10 29 -19
35 -19 9 0 194 251 194 265 0 10 -67 5 -82 -7z"/>
<path d="M2490 1348 c-55 -28 -72 -58 -67 -121 5 -60 30 -88 117 -129 36 -17
73 -37 83 -46 24 -22 22 -67 -5 -86 -27 -19 -79 -21 -96 -4 -16 16 -15 55 1
61 22 8 -8 42 -41 45 -44 4 -75 -29 -70 -74 4 -35 -10 -46 -30 -21 -5 6 -38
82 -72 167 -35 85 -69 165 -77 176 -18 29 -62 46 -104 42 -29 -2 -34 -7 -34
-28 0 -18 6 -26 23 -28 12 -2 22 -9 21 -15 0 -7 -30 -82 -67 -167 -56 -130
-71 -156 -90 -158 -28 -4 -39 -27 -22 -48 10 -11 31 -14 94 -12 80 3 81 3 84
31 3 24 0 27 -27 27 -35 0 -35 1 -19 47 l12 33 72 0 c72 0 72 0 83 -31 15 -44
14 -47 -11 -51 -17 -2 -23 -10 -23 -28 0 -25 1 -25 92 -28 69 -2 95 1 105 12
11 12 17 12 43 -2 42 -23 160 -22 203 1 42 23 72 72 72 118 0 56 -35 98 -121
143 -42 23 -83 47 -93 55 -38 32 -2 85 55 79 43 -4 61 -32 34 -52 -16 -12 -18
-18 -9 -33 28 -46 114 -11 114 47 0 84 -130 128 -230 78z m-274 -245 c-2 -2
-22 -3 -44 -1 l-40 3 22 53 21 53 23 -52 c12 -28 21 -54 18 -56z"/>
<path d="M2853 1359 c-80 -23 -112 -133 -57 -199 15 -17 62 -49 105 -71 83
-41 102 -66 80 -108 -21 -39 -93 -42 -118 -5 -12 19 -12 24 3 39 24 23 7 49
-35 53 -46 5 -71 -21 -71 -70 0 -49 31 -82 91 -98 125 -34 248 40 236 142 -8
59 -39 92 -132 138 -85 42 -102 61 -90 100 11 36 88 41 109 7 9 -14 7 -20 -6
-28 -27 -15 -22 -48 8 -55 33 -8 71 9 85 40 37 81 -87 150 -208 115z"/>
<path d="M3261 1356 c-112 -40 -179 -168 -151 -286 38 -159 209 -228 344 -138
63 41 97 102 104 183 6 84 -15 140 -72 193 -64 59 -147 76 -225 48z m119 -61
c47 -24 64 -68 65 -160 0 -127 -49 -196 -130 -181 -63 12 -99 74 -99 171 -2
143 71 218 164 170z"/>
<path d="M1604 1345 c-9 -23 3 -43 28 -47 23 -3 23 -3 23 -168 l0 -164 -25 -6
c-28 -7 -39 -38 -18 -51 7 -5 52 -9 99 -9 65 0 90 4 99 15 17 20 6 43 -22 47
-20 3 -23 9 -26 56 l-3 52 48 0 c58 0 128 32 157 73 15 21 21 44 21 84 0 49
-3 58 -31 83 -41 36 -107 50 -240 50 -84 0 -106 -3 -110 -15z m233 -56 c35
-13 43 -25 43 -70 0 -50 -26 -79 -78 -86 l-42 -6 0 87 c0 84 0 86 24 86 14 0
37 -5 53 -11z"/>
<path d="M3557 1353 c-17 -16 -5 -45 22 -54 26 -9 34 -24 81 -152 29 -78 61
-166 72 -194 17 -47 23 -53 47 -53 27 0 30 5 96 190 72 202 80 214 138 208
l32 -3 3 -145 c3 -168 0 -187 -31 -192 -16 -2 -22 -10 -22 -28 l0 -25 160 -3
c194 -3 197 -2 199 84 1 56 0 59 -23 59 -19 0 -30 -10 -45 -40 -21 -39 -22
-40 -76 -40 l-55 0 -3 68 -3 67 54 0 c36 0 59 5 67 15 22 26 -5 45 -66 45
l-54 0 0 70 0 70 44 0 c48 0 63 -12 72 -58 7 -35 37 -51 59 -32 21 17 20 114
-1 134 -14 14 -47 16 -252 14 l-237 -3 0 -25 c0 -18 6 -26 23 -28 12 -2 22 -5
22 -7 0 -9 -74 -211 -80 -218 -4 -4 -22 34 -40 85 -48 137 -66 167 -105 184
-36 15 -87 19 -98 7z"/>
<path d="M4374 1346 c-9 -24 3 -46 25 -46 10 0 22 -7 25 -16 9 -22 7 -297 -2
-310 -4 -7 -16 -13 -27 -15 -14 -3 -20 -12 -20 -29 0 -25 1 -25 97 -28 86 -2
98 -1 107 16 12 22 3 38 -24 43 -17 4 -20 13 -23 67 -4 83 11 81 68 -9 54 -85
87 -111 149 -117 73 -7 96 40 32 65 -17 6 -49 37 -76 74 l-47 64 24 15 c69 45
90 99 61 157 -31 64 -68 77 -225 81 -120 4 -139 2 -144 -12z m250 -67 c19 -15
26 -30 26 -55 0 -47 -29 -74 -80 -74 l-40 0 0 75 0 75 34 0 c19 0 45 -9 60
-21z"/>
<path d="M3445 747 c-46 -14 -57 -50 -17 -55 22 -3 22 -5 22 -172 0 -179 0
-180 -51 -180 -17 0 -19 8 -19 89 0 49 -4 101 -10 115 -28 74 -206 75 -224 1
-7 -28 6 -59 29 -73 13 -7 12 -10 -9 -21 -51 -28 -59 -89 -17 -132 33 -33 87
-39 130 -15 21 11 29 12 45 1 15 -9 55 -12 131 -11 103 2 110 3 113 23 2 14
-4 23 -17 28 -20 6 -21 15 -23 208 -3 228 0 219 -83 194z m-161 -203 c17 -16
22 -64 7 -64 -5 0 -24 -3 -42 -6 -27 -5 -32 -4 -22 6 8 9 9 19 0 37 -9 19 -8
26 4 34 21 13 35 11 53 -7z m16 -124 c0 -25 -26 -61 -47 -67 -48 -12 -59 41
-13 64 30 15 60 17 60 3z"/>
<path d="M2685 720 c-37 -40 15 -92 67 -66 26 13 35 50 18 72 -18 20 -64 17
-85 -6z"/>
<path d="M1604 686 c-8 -21 3 -36 27 -36 18 0 19 -8 19 -149 0 -147 0 -150
-22 -153 -24 -3 -37 -36 -20 -47 6 -3 48 -6 94 -6 78 0 83 2 86 23 3 16 -4 25
-22 32 -24 9 -26 15 -26 64 l0 55 58 3 c49 3 57 6 57 23 0 17 -8 20 -57 23
l-58 3 0 64 0 65 34 0 c37 0 50 -11 60 -51 7 -31 33 -44 53 -28 10 9 13 29 11
68 l-3 56 -143 3 c-118 2 -143 0 -148 -12z"/>
<path d="M2503 658 c-5 -7 -13 -21 -16 -31 -4 -9 -18 -22 -32 -27 -31 -12 -34
-49 -5 -57 18 -5 20 -14 20 -105 0 -92 2 -101 25 -123 26 -27 89 -34 126 -15
11 6 25 7 32 3 17 -10 139 -10 155 0 19 14 15 26 -13 39 -25 11 -25 13 -25
134 0 84 -4 124 -12 126 -13 5 -87 -13 -105 -25 -20 -13 -15 -27 12 -37 24 -9
25 -13 25 -98 0 -85 -1 -89 -25 -100 -16 -8 -26 -8 -31 -1 -3 6 -18 9 -32 8
-47 -5 -52 5 -52 102 l0 89 29 0 c33 0 54 20 45 44 -4 10 -18 16 -39 16 -31 0
-34 3 -37 32 -3 35 -27 49 -45 26z"/>
<path d="M3748 624 c-47 -25 -63 -78 -32 -108 33 -33 103 -6 74 29 -27 33 27
64 58 33 36 -36 -2 -110 -88 -170 -59 -42 -83 -79 -63 -99 5 -5 64 -8 134 -7
122 3 124 3 127 27 5 33 -12 41 -88 41 l-64 0 52 36 c96 68 116 162 42 212
-39 26 -110 29 -152 6z"/>
<path d="M4053 620 c-51 -31 -76 -90 -71 -171 6 -104 59 -163 146 -163 92 0
150 60 159 162 5 70 -24 135 -76 169 -43 29 -113 31 -158 3z m126 -56 c17 -21
21 -41 21 -96 0 -106 -34 -153 -92 -124 -51 25 -63 181 -17 227 27 27 64 24
88 -7z"/>
<path d="M4363 624 c-39 -19 -56 -61 -39 -95 12 -26 51 -36 76 -20 12 8 12 13
0 36 -17 32 -4 48 36 43 26 -3 29 -7 32 -41 4 -51 -22 -89 -100 -145 -50 -36
-59 -47 -56 -70 l3 -27 127 -3 c121 -2 127 -2 133 19 10 32 -9 43 -81 49 l-66
5 46 32 c77 54 102 116 74 178 -24 52 -118 72 -185 39z"/>
<path d="M4643 624 c-39 -19 -56 -61 -39 -95 12 -26 51 -36 76 -20 12 8 12 13
0 36 -17 32 -4 48 36 43 25 -3 29 -8 32 -38 5 -51 -21 -92 -95 -144 -55 -40
-64 -51 -61 -74 l3 -27 127 -3 c121 -2 127 -2 133 19 10 32 -9 43 -81 49 l-66
5 46 32 c77 54 102 116 74 178 -24 52 -118 72 -185 39z"/>
<path d="M1969 577 c-125 -83 -69 -287 80 -287 48 0 107 28 117 55 8 19 24 19
24 0 0 -8 15 -24 33 -36 25 -16 44 -19 91 -16 51 3 63 8 87 35 44 49 36 107
-19 136 -18 10 -22 15 -10 16 23 0 48 27 48 51 0 11 -11 31 -25 44 -20 20 -34
25 -78 25 -60 0 -101 -23 -118 -67 -11 -29 10 -86 38 -102 17 -10 16 -10 -4
-11 -13 0 -28 -9 -35 -19 -9 -16 -16 -17 -31 -9 -16 8 -24 5 -44 -16 -33 -36
-84 -36 -112 0 -12 15 -21 35 -21 45 0 17 9 19 79 19 70 0 82 3 94 21 20 28 6
76 -33 112 -40 36 -111 38 -161 4z m109 -39 c7 -7 12 -20 12 -30 0 -15 -9 -18
-50 -18 -54 0 -58 4 -34 38 17 24 53 29 72 10z m265 6 c3 -3 0 -15 -6 -25 -10
-16 -9 -21 3 -29 22 -14 4 -12 -35 4 -33 14 -44 34 -28 49 8 9 58 9 66 1z
m-16 -145 c29 -11 37 -27 23 -44 -13 -16 -58 -20 -75 -7 -6 4 -10 22 -10 39 0
35 1 35 62 12z"/>
<path d="M2793 584 c-6 -15 13 -38 39 -46 5 -2 31 -57 58 -123 42 -104 52
-120 73 -123 23 -3 28 6 73 119 42 105 53 124 77 133 20 8 27 17 25 31 -3 18
-10 20 -73 20 -59 0 -70 -3 -73 -18 -3 -12 4 -20 17 -24 23 -6 23 -6 -8 -88
l-19 -50 -20 45 c-10 25 -22 55 -26 67 -18 57 -126 100 -143 57z"/>
</g>
</svg>
